HIERARCHY
ROOT Hips
{
  OFFSET 5.72205e-005 65.662 3.42586
  CHANNELS 6 Xposition Yposition Zposition Zrotation Xrotation Yrotation
  JOINT Chest
  {
    OFFSET 0 8.7983 -4.7612
    CHANNELS 6 Xposition Yposition Zposition Zrotation Xrotation Yrotation
    JOINT Chest2
    {
      OFFSET 0 8.0291 0.4195
      CHANNELS 6 Xposition Yposition Zposition Zrotation Xrotation Yrotation
      JOINT Chest3
      {
        OFFSET 0 9.9351 -2.2114
        CHANNELS 6 Xposition Yposition Zposition Zrotation Xrotation Yrotation
        JOINT Neck
        {
          OFFSET 0 22.3885 -0.4656
          CHANNELS 6 Xposition Yposition Zposition Zrotation Xrotation Yrotation
          JOINT Head
          {
            OFFSET -0.0001 12.643 3.4389
            CHANNELS 6 Xposition Yposition Zposition Zrotation Xrotation Yrotation
            End Site
            {
              OFFSET 0.0001 17.6655 0.5274
            }
          }
        }
        JOINT LeftCollar
        {
          OFFSET 2.2603 21.606 7.4023
          CHANNELS 6 Xposition Yposition Zposition Zrotation Xrotation Yrotation
          JOINT LeftShoulder
          {
            OFFSET 13.5163 -1.1332 -5.0146
            CHANNELS 6 Xposition Yposition Zposition Zrotation Xrotation Yrotation
            JOINT LeftElbow
            {
              OFFSET -0.0995 -28.05 -0.2431
              CHANNELS 6 Xposition Yposition Zposition Zrotation Xrotation Yrotation
              JOINT LeftWrist
              {
                OFFSET 0.0679 -23.3996 -0.1402
                CHANNELS 6 Xposition Yposition Zposition Zrotation Xrotation Yrotation
                JOINT LeftFinger1
                {
                  OFFSET 0.7932 -9.069 2.5189
                  CHANNELS 6 Xposition Yposition Zposition Zrotation Xrotation Yrotation
                  JOINT LeftFinger11
                  {
                    OFFSET -0.8272 -3.3923 0.5977
                    CHANNELS 6 Xposition Yposition Zposition Zrotation Xrotation Yrotation
                    JOINT LeftFinger12
                    {
                      OFFSET -0.5649 -2.3158 0.4082
                      CHANNELS 6 Xposition Yposition Zposition Zrotation Xrotation Yrotation
                      End Site
                      {
                        OFFSET -0.4919 -1.6479 0.2673
                      }
                    }
                  }
                }
                JOINT LeftFinger2
                {
                  OFFSET 0.9159 -9.2044 0.2193
                  CHANNELS 6 Xposition Yposition Zposition Zrotation Xrotation Yrotation
                  JOINT LeftFinger21
                  {
                    OFFSET 0.0117 -4.1944 -0.0248
                    CHANNELS 6 Xposition Yposition Zposition Zrotation Xrotation Yrotation
                    JOINT LeftFinger22
                    {
                      OFFSET 0.0071 -2.3249 -0.0142
                      CHANNELS 6 Xposition Yposition Zposition Zrotation Xrotation Yrotation
                      End Site
                      {
                        OFFSET -0.1475 -2.0882 0.0028
                      }
                    }
                  }
                }
                JOINT LeftFinger3
                {
                  OFFSET 0.6113 -8.7231 -2.0637
                  CHANNELS 6 Xposition Yposition Zposition Zrotation Xrotation Yrotation
                  JOINT LeftFinger31
                  {
                    OFFSET -0.1927 -3.8059 -0.2383
                    CHANNELS 6 Xposition Yposition Zposition Zrotation Xrotation Yrotation
                    JOINT LeftFinger32
                    {
                      OFFSET -0.1091 -2.1688 -0.1362
                      CHANNELS 6 Xposition Yposition Zposition Zrotation Xrotation Yrotation
                      End Site
                      {
                        OFFSET -0.2358 -1.9176 -0.0906
                      }
                    }
                  }
                }
                JOINT LeftFinger4
                {
                  OFFSET -0.6151 -8.0947 -3.5641
                  CHANNELS 6 Xposition Yposition Zposition Zrotation Xrotation Yrotation
                  JOINT LeftFinger41
                  {
                    OFFSET -0.4882 -2.341 -0.6462
                    CHANNELS 6 Xposition Yposition Zposition Zrotation Xrotation Yrotation
                    JOINT LeftFinger42
                    {
                      OFFSET -0.3575 -1.7167 -0.4742
                      CHANNELS 6 Xposition Yposition Zposition Zrotation Xrotation Yrotation
                      End Site
                      {
                        OFFSET -0.4187 -1.5237 -0.3496
                      }
                    }
                  }
                }
                JOINT LeftFinger0
                {
                  OFFSET -1.42 -1.8761 1.4223
                  CHANNELS 6 Xposition Yposition Zposition Zrotation Xrotation Yrotation
                  JOINT LeftFinger01
                  {
                    OFFSET -1.1471 -3.4929 2.6334
                    CHANNELS 6 Xposition Yposition Zposition Zrotation Xrotation Yrotation
                    JOINT LeftFinger02
                    {
                      OFFSET -0.823 -2.3 1.6571
                      CHANNELS 6 Xposition Yposition Zposition Zrotation Xrotation Yrotation
                      End Site
                      {
                        OFFSET -0.5822 -1.6914 1.1582
                      }
                    }
                  }
                }
              }
            }
          }
        }
        JOINT RightCollar
        {
          OFFSET -2.2603 21.606 7.4023
          CHANNELS 6 Xposition Yposition Zposition Zrotation Xrotation Yrotation
          JOINT RightShoulder
          {
            OFFSET -13.5187 -1.1334 -5.0155
            CHANNELS 6 Xposition Yposition Zposition Zrotation Xrotation Yrotation
            JOINT RightElbow
            {
              OFFSET 0.0994 -28.0499 -0.2431
              CHANNELS 6 Xposition Yposition Zposition Zrotation Xrotation Yrotation
              JOINT RightWrist
              {
                OFFSET -0.0679 -23.3996 -0.1402
                CHANNELS 6 Xposition Yposition Zposition Zrotation Xrotation Yrotation
                JOINT RightFinger1
                {
                  OFFSET -0.7932 -9.0691 2.5189
                  CHANNELS 6 Xposition Yposition Zposition Zrotation Xrotation Yrotation
                  JOINT RightFinger11
                  {
                    OFFSET 0.8272 -3.3923 0.5977
                    CHANNELS 6 Xposition Yposition Zposition Zrotation Xrotation Yrotation
                    JOINT RightFinger12
                    {
                      OFFSET 0.565 -2.3158 0.4082
                      CHANNELS 6 Xposition Yposition Zposition Zrotation Xrotation Yrotation
                      End Site
                      {
                        OFFSET 0.4919 -1.6479 0.2673
                      }
                    }
                  }
                }
                JOINT RightFinger2
                {
                  OFFSET -0.916 -9.2044 0.2193
                  CHANNELS 6 Xposition Yposition Zposition Zrotation Xrotation Yrotation
                  JOINT RightFinger21
                  {
                    OFFSET -0.0117 -4.1944 -0.0248
                    CHANNELS 6 Xposition Yposition Zposition Zrotation Xrotation Yrotation
                    JOINT RightFinger22
                    {
                      OFFSET -0.0071 -2.3249 -0.0142
                      CHANNELS 6 Xposition Yposition Zposition Zrotation Xrotation Yrotation
                      End Site
                      {
                        OFFSET 0.1475 -2.0882 0.0028
                      }
                    }
                  }
                }
                JOINT RightFinger3
                {
                  OFFSET -0.6113 -8.7231 -2.0637
                  CHANNELS 6 Xposition Yposition Zposition Zrotation Xrotation Yrotation
                  JOINT RightFinger31
                  {
                    OFFSET 0.1927 -3.8059 -0.2383
                    CHANNELS 6 Xposition Yposition Zposition Zrotation Xrotation Yrotation
                    JOINT RightFinger32
                    {
                      OFFSET 0.1091 -2.1688 -0.1362
                      CHANNELS 6 Xposition Yposition Zposition Zrotation Xrotation Yrotation
                      End Site
                      {
                        OFFSET 0.2358 -1.9176 -0.0906
                      }
                    }
                  }
                }
                JOINT RightFinger4
                {
                  OFFSET 0.6151 -8.0947 -3.564
                  CHANNELS 6 Xposition Yposition Zposition Zrotation Xrotation Yrotation
                  JOINT RightFinger41
                  {
                    OFFSET 0.4882 -2.341 -0.6462
                    CHANNELS 6 Xposition Yposition Zposition Zrotation Xrotation Yrotation
                    JOINT RightFinger42
                    {
                      OFFSET 0.3574 -1.7166 -0.4742
                      CHANNELS 6 Xposition Yposition Zposition Zrotation Xrotation Yrotation
                      End Site
                      {
                        OFFSET 0.4187 -1.5237 -0.3496
                      }
                    }
                  }
                }
                JOINT RightFinger0
                {
                  OFFSET 1.4199 -1.8761 1.4221
                  CHANNELS 6 Xposition Yposition Zposition Zrotation Xrotation Yrotation
                  JOINT RightFinger01
                  {
                    OFFSET 1.1472 -3.4929 2.6336
                    CHANNELS 6 Xposition Yposition Zposition Zrotation Xrotation Yrotation
                    JOINT RightFinger02
                    {
                      OFFSET 0.8229 -2.3 1.6571
                      CHANNELS 6 Xposition Yposition Zposition Zrotation Xrotation Yrotation
                      End Site
                      {
                        OFFSET 0.5822 -1.6914 1.1582
                      }
                    }
                  }
                }
              }
            }
          }
        }
      }
    }
  }
  JOINT RightHip
  {
    OFFSET -9.412 3.9771 -0.7758
    CHANNELS 6 Xposition Yposition Zposition Zrotation Xrotation Yrotation
    JOINT RightKnee
    {
      OFFSET -0.7531 -40.938 0
      CHANNELS 6 Xposition Yposition Zposition Zrotation Xrotation Yrotation
      JOINT RightAnkle
      {
        OFFSET 0 -40.1986 0
        CHANNELS 6 Xposition Yposition Zposition Zrotation Xrotation Yrotation
        JOINT RightToe
        {
          OFFSET 0 -4.4182 9.239
          CHANNELS 6 Xposition Yposition Zposition Zrotation Xrotation Yrotation
          End Site
          {
            OFFSET 0 0 6.1981
          }
        }
      }
    }
  }
  JOINT LeftHip
  {
    OFFSET 9.4119 3.9773 -0.7758
    CHANNELS 6 Xposition Yposition Zposition Zrotation Xrotation Yrotation
    JOINT LeftKnee
    {
      OFFSET 0.7532 -40.9383 0
      CHANNELS 6 Xposition Yposition Zposition Zrotation Xrotation Yrotation
      JOINT LeftAnkle
      {
        OFFSET 0 -40.1986 0
        CHANNELS 6 Xposition Yposition Zposition Zrotation Xrotation Yrotation
        JOINT LeftToe
        {
          OFFSET 0 -4.4182 9.239
          CHANNELS 6 Xposition Yposition Zposition Zrotation Xrotation Yrotation
          End Site
          {
            OFFSET 0 0 6.1981
          }
        }
      }
    }
  }
}
MOTION
Frames:	4
Frame Time:	0.0333333
5.72205e-005 65.662 3.42586 0 0 -0 0 8.7983 -4.7612 0 0 -0 0 8.0291 0.4195 0 0 -0 0 9.9351 -2.2114 0 0 -0 0 22.3885 -0.4656 0 0 -0 -0.0001 12.643 3.4389 0 0 -0 2.2603 21.606 7.4023 0 0 -12.5014 13.5163 -1.1332 -5.0146 88.1196 14.2451 10.6914 -0.0995 -28.05 -0.2431 -0.00160068 -0.00239207 0.000740045 0.0679 -23.3996 -0.1402 -8.4365e-005 7.00714e-005 -9.52055e-007 0.7932 -9.069 2.5189 9.93923e-017 -1.98785e-016 -1.59028e-015 -0.8272 -3.3923 0.5977 9.93923e-017 -5.96354e-016 -1.59028e-015 -0.5649 -2.3158 0.4082 -9.93923e-017 -5.96354e-016 -1.59028e-015 0.9159 -9.2044 0.2193 9.93923e-017 -1.98785e-016 -1.59028e-015 0.0117 -4.1944 -0.0248 -0.0128176 0.00232552 8.52707e-005 0.0071 -2.3249 -0.0142 9.93923e-017 5.96354e-016 -0 0.6113 -8.7231 -2.0637 9.93923e-017 -1.98785e-016 -1.59028e-015 -0.1927 -3.8059 -0.2383 -0.0160551 0.00299681 0.000857156 -0.1091 -2.1688 -0.1362 -2.48481e-016 0 3.18055e-015 -0.6151 -8.0947 -3.5641 9.93923e-017 -1.98785e-016 -1.59028e-015 -0.4882 -2.341 -0.6462 -0.0125865 0.0031206 0.00282719 -0.3575 -1.7167 -0.4742 0 1.98785e-016 -0 -1.42 -1.8761 1.4223 9.93923e-017 -1.98785e-016 -1.59028e-015 -1.1471 -3.4929 2.6334 9.93923e-017 -5.96354e-016 -1.59028e-015 -0.823 -2.3 1.6571 -9.93923e-017 -5.96354e-016 -1.59028e-015 -2.2603 21.606 7.4023 -0.865644 0.16582 7.03859 -13.5187 -1.1334 -5.0155 -88.0329 10.2057 -10.5567 0.0994 -28.0499 -0.2431 0.0015593 -0.00248883 -0.000788628 -0.0679 -23.3996 -0.1402 7.87605e-005 4.10553e-005 1.24965e-005 -0.7932 -9.0691 2.5189 -3.97569e-016 -7.95139e-016 3.18055e-015 0.8272 -3.3923 0.5977 -1.98785e-016 -3.97569e-016 3.18055e-015 0.565 -2.3158 0.4082 -1.98785e-016 0 3.18055e-015 -0.916 -9.2044 0.2193 -3.97569e-016 -7.95139e-016 3.18055e-015 -0.0117 -4.1944 -0.0248 0.0129473 0.00231697 -8.70038e-005 -0.0071 -2.3249 -0.0142 9.93923e-017 -7.95139e-016 1.59028e-015 -0.6113 -8.7231 -2.0637 -3.97569e-016 -7.95139e-016 3.18055e-015 0.1927 -3.8059 -0.2383 0.0163314 0.00303369 -0.000872333 0.1091 -2.1688 -0.1362 3.97569e-016 7.95139e-016 -3.18055e-015 0.6151 -8.0947 -3.564 -3.97569e-016 -7.95139e-016 3.18055e-015 0.4882 -2.341 -0.6462 0.0145763 0.00367772 -0.00326275 0.3574 -1.7166 -0.4742 9.93923e-017 -3.97569e-016 -0 1.4199 -1.8761 1.4221 -3.97569e-016 -7.95139e-016 3.18055e-015 1.1472 -3.4929 2.6336 -1.98785e-016 -3.97569e-016 3.18055e-015 0.8229 -2.3 1.6571 -1.98785e-016 0 3.18055e-015 -9.412 3.9771 -0.7758 3.42482 1.32465 -0.0626183 -0.7531 -40.938 0 0.000117508 0.717283 0.000978199 0 -40.1986 0 -3.4257 -2.04197 -0.0604716 8.88178e-016 -4.4182 9.239 6.47761e-025 0 -0 9.4119 3.9773 -0.7758 -3.42483 1.34017 0.0627307 0.7532 -40.9383 -2.22045e-016 -0.000193936 0.682302 -0.0013703 -8.88179e-016 -40.1986 0 3.42574 -2.02253 0.0595886 -8.88178e-016 -4.4182 9.239 -8.45714e-024 0 -7.40531e-025 
-0.0127597 29.8038 6.75869 3.39111e-007 -14.6258 2.85476e-007 0 8.7983 -4.7612 -0.792619 5.91264 -3.86053 -2.77556e-017 8.0291 0.4195 -1.19033 11.8651 -7.70048 -2.22045e-016 9.9351 -2.2114 -1.19033 11.8651 -7.70051 -8.88178e-016 22.3885 -0.4656 -0.474013 -0.136414 0.00142137 -0.0001 12.643 3.4389 1.15499 -6.04832 -14.4715 2.2603 21.606 7.4023 2.41282e-006 -1.4627e-005 -12.461 13.5163 -1.1332 -5.0146 95.0556 -13.7769 20.3278 -0.0995 -28.05 -0.2431 -15.2186 -53.0456 -9.50809 0.0679 -23.3996 -0.1402 0.032406 -0.0757748 0.293019 0.7932 -9.069 2.5189 1.05934e-030 -6.36111e-015 9.54166e-015 -0.8272 -3.3923 0.5977 6.67393e-006 -6.71586e-006 -1.1306e-006 -0.5649 -2.3158 0.4082 -6.95446e-006 -3.70517e-006 -4.20416e-006 0.9159 -9.2044 0.2193 1.05934e-030 -6.36111e-015 9.54166e-015 0.0117 -4.1944 -0.0248 -0.0127315 0.0023182 7.87632e-005 0.0071 -2.3249 -0.0142 -2.09661e-031 3.18055e-015 3.77691e-015 0.6113 -8.7231 -2.0637 1.05934e-030 -6.36111e-015 9.54166e-015 -0.1927 -3.8059 -0.2383 -0.0160041 0.00299048 0.000854114 -0.1091 -2.1688 -0.1362 1.59028e-015 -6.36111e-015 2.18663e-015 -0.6151 -8.0947 -3.5641 1.05934e-030 -6.36111e-015 9.54166e-015 -0.4882 -2.341 -0.6462 -0.0125787 0.00312957 0.00281527 -0.3575 -1.7167 -0.4742 0 0 -9.93923e-016 -1.42 -1.8761 1.4223 1.05934e-030 -6.36111e-015 9.54166e-015 -1.1471 -3.4929 2.6334 6.67393e-006 -6.71586e-006 -1.1306e-006 -0.823 -2.3 1.6571 -6.95446e-006 -3.70517e-006 -4.20416e-006 -2.2603 21.606 7.4023 -0.865642 0.165807 7.0386 -13.5187 -1.1334 -5.0155 -103.114 -12.0972 -34.1816 0.0994 -28.0499 -0.2431 0.00174183 0.000313279 -0.000101343 -0.0679 -23.3996 -0.1402 6.18973e-005 5.17272e-005 1.08254e-005 -0.7932 -9.0691 2.5189 8.08705e-006 2.21134e-006 -6.40814e-007 0.8272 -3.3923 0.5977 8.61065e-007 2.64915e-006 2.52468e-006 0.565 -2.3158 0.4082 -8.94812e-006 -3.51945e-006 -1.88387e-006 -0.916 -9.2044 0.2193 8.08705e-006 2.21134e-006 -6.40814e-007 -0.0117 -4.1944 -0.0248 0.0129403 0.00231342 -8.44129e-005 -0.0071 -2.3249 -0.0142 -8.17919e-006 -8.75613e-007 -9.96921e-007 -0.6113 -8.7231 -2.0637 8.08705e-006 2.21134e-006 -6.40814e-007 0.1927 -3.8059 -0.2383 0.0162946 0.00302842 -0.000870345 0.1091 -2.1688 -0.1362 1.00613e-005 9.9239e-007 4.70911e-007 0.6151 -8.0947 -3.564 8.08705e-006 2.21134e-006 -6.40814e-007 0.4882 -2.341 -0.6462 0.0146709 0.00370061 -0.00328115 0.3574 -1.7166 -0.4742 -9.96792e-006 -1.4706e-006 1.16645e-006 1.4199 -1.8761 1.4221 8.08705e-006 2.21134e-006 -6.40814e-007 1.1472 -3.4929 2.6336 8.61065e-007 2.64915e-006 2.52468e-006 0.8229 -2.3 1.6571 -8.94812e-006 -3.51945e-006 -1.88387e-006 -9.412 3.9771 -0.7758 -4.60113 -60.8812 -13.5848 -0.7531 -40.938 7.10543e-015 0.0245066 77.6693 -1.64572 1.77636e-015 -40.1986 0 -3.44945 -5.82158 -1.25654 8.88178e-016 -4.4182 9.239 -9.93923e-017 -7.95139e-016 -0 9.4119 3.9773 -0.7758 -7.01441 -59.9154 -3.44369 0.7532 -40.9383 0 -0.0265887 77.8806 1.64998 0 -40.1986 0 3.44652 -6.03451 1.26452 0 -4.4182 9.239 3.55455e-023 -2.1319e-007 -7.10909e-023 
-0.148639 2.86823 8.63333 -1.15688e-007 -26.0015 1.52706e-007 0 8.7983 -4.7612 0.391998 9.7877 -7.28495 5.55112e-017 8.0291 0.4195 2.10838 19.4418 -14.971 0 9.9351 -2.2114 2.10838 19.4418 -14.971 0 22.3885 -0.4656 -0.945987 -0.271388 -0.00719473 -0.0001 12.643 3.4389 -0.00400659 -10.0021 -26.0021 2.2603 21.606 7.4023 1.10932e-005 -0.000404788 -12.4294 13.5163 -1.1332 -5.0146 98.6302 -35.6817 26.8506 -0.0995 -28.05 -0.2431 -119.797 -75.9085 -110.877 0.0679 -23.3996 -0.1402 0.0558942 -0.154669 0.580869 0.7932 -9.069 2.5189 1.49089e-015 0 3.18055e-015 -0.8272 -3.3923 0.5977 2.18663e-015 0 3.18055e-015 -0.5649 -2.3158 0.4082 2.73329e-015 -1.98785e-016 3.18055e-015 0.9159 -9.2044 0.2193 1.49089e-015 0 3.18055e-015 0.0117 -4.1944 -0.0248 -0.0127749 0.00231713 8.89594e-005 0.0071 -2.3249 -0.0142 1.2424e-015 0 -0 0.6113 -8.7231 -2.0637 1.49089e-015 0 3.18055e-015 -0.1927 -3.8059 -0.2383 -0.0160175 0.00299006 0.000859261 -0.1091 -2.1688 -0.1362 1.49089e-016 -2.60408e-014 6.36111e-015 -0.6151 -8.0947 -3.5641 1.49089e-015 0 3.18055e-015 -0.4882 -2.341 -0.6462 -0.0126202 0.00312973 0.00283619 -0.3575 -1.7167 -0.4742 -6.4605e-016 3.97569e-016 3.18055e-015 -1.42 -1.8761 1.4223 1.49089e-015 0 3.18055e-015 -1.1471 -3.4929 2.6334 2.18663e-015 0 3.18055e-015 -0.823 -2.3 1.6571 2.73329e-015 -1.98785e-016 3.18055e-015 -2.2603 21.606 7.4023 -0.865635 0.165405 7.03889 -13.5187 -1.1334 -5.0155 -113.539 -30.069 -51.5226 0.0994 -28.0499 -0.2431 0.00245136 0.00273651 2.80246e-005 -0.0679 -23.3996 -0.1402 5.80712e-005 2.93662e-005 6.23795e-006 -0.7932 -9.0691 2.5189 -3.97569e-016 1.59028e-015 6.36111e-015 0.8272 -3.3923 0.5977 -3.97569e-016 0 6.36111e-015 0.565 -2.3158 0.4082 -1.76556e-031 1.59028e-015 6.36111e-015 -0.916 -9.2044 0.2193 -3.97569e-016 1.59028e-015 6.36111e-015 -0.0117 -4.1944 -0.0248 0.0129624 0.0023203 -8.59899e-005 -0.0071 -2.3249 -0.0142 3.97569e-016 -1.59028e-015 6.36111e-015 -0.6113 -8.7231 -2.0637 -3.97569e-016 1.59028e-015 6.36111e-015 0.1927 -3.8059 -0.2383 0.0163612 0.00304224 -0.000875768 0.1091 -2.1688 -0.1362 -3.97569e-016 0 -3.18055e-015 0.6151 -8.0947 -3.564 -3.97569e-016 1.59028e-015 6.36111e-015 0.4882 -2.341 -0.6462 0.0145669 0.0036759 -0.00326106 0.3574 -1.7166 -0.4742 1.19271e-015 -1.59028e-015 6.36111e-015 1.4199 -1.8761 1.4221 -3.97569e-016 1.59028e-015 6.36111e-015 1.1472 -3.4929 2.6336 -3.97569e-016 0 6.36111e-015 0.8229 -2.3 1.6571 -1.76556e-031 1.59028e-015 6.36111e-015 -9.412 3.9771 -0.7758 -140.265 -71.0483 -151.356 -0.7531 -40.938 3.55271e-015 179.93 44.402 175.202 0 -40.1986 0 -3.36914 -10.9784 -3.5553 8.88179e-016 -4.4182 9.239 -1.0422e-007 -4.51137e-007 -8.32048e-007 9.4119 3.9773 -0.7758 -163.856 -75.6579 -156.469 0.7532 -40.9383 -3.9968e-015 -179.924 44.0873 -175.172 -8.88178e-016 -40.1986 0 3.37507 -11.3611 3.58921 1.77636e-015 -4.4182 9.239 1.46094e-014 7.95139e-016 -5.2349e-014 
-0.178232 -0.913002 8.82684 7.42586e-007 -27.6266 5.34646e-006 0 8.7983 -4.7612 0.694584 10.2687 -7.7874 -5.55112e-017 8.0291 0.4195 2.8933 20.3405 -16.0951 0 9.9351 -2.2114 2.8933 20.3405 -16.0951 8.88179e-016 22.3885 -0.4656 -1.41189 -0.400649 -0.0466084 -0.0001 12.643 3.4389 -0.242586 -10.478 -27.6654 2.2603 21.606 7.4023 -2.56305e-006 -0.000527937 -12.4248 13.5163 -1.1332 -5.0146 98.9256 -38.8097 27.611 -0.0995 -28.05 -0.2431 -136.808 -72.021 -127.438 0.0679 -23.3996 -0.1402 0.0528443 -0.239968 0.853299 0.7932 -9.069 2.5189 7.95139e-016 8.5554e-007 -9.54166e-015 -0.8272 -3.3923 0.5977 7.22853e-007 -1.30766e-006 3.08604e-006 -0.5649 -2.3158 0.4082 0 8.5554e-007 -0 0.9159 -9.2044 0.2193 7.95139e-016 8.5554e-007 -9.54166e-015 0.0117 -4.1944 -0.0248 -0.0128098 0.00232404 8.65877e-005 0.0071 -2.3249 -0.0142 -7.95139e-016 4.77083e-015 -6.36111e-015 0.6113 -8.7231 -2.0637 7.95139e-016 8.5554e-007 -9.54166e-015 -0.1927 -3.8059 -0.2383 -0.0160201 0.002991 0.000859766 -0.1091 -2.1688 -0.1362 -7.95139e-016 1.59028e-015 6.36111e-015 -0.6151 -8.0947 -3.5641 7.95139e-016 8.5554e-007 -9.54166e-015 -0.4882 -2.341 -0.6462 -0.0126188 0.00312769 0.00283368 -0.3575 -1.7167 -0.4742 7.95139e-016 -4.77083e-015 -3.18055e-015 -1.42 -1.8761 1.4223 7.95139e-016 8.5554e-007 -9.54166e-015 -1.1471 -3.4929 2.6334 7.22853e-007 -1.30766e-006 3.08604e-006 -0.823 -2.3 1.6571 0 8.5554e-007 -0 -2.2603 21.606 7.4023 -0.865644 0.165289 7.03897 -13.5187 -1.1334 -5.0155 -114.891 -32.6672 -53.8814 0.0994 -28.0499 -0.2431 0.00243757 0.00260227 -0.000126631 -0.0679 -23.3996 -0.1402 5.72192e-005 3.34068e-005 1.05192e-005 -0.7932 -9.0691 2.5189 -7.95139e-016 0 -0 0.8272 -3.3923 0.5977 1.19271e-015 -3.18055e-015 3.18055e-015 0.565 -2.3158 0.4082 -7.95139e-016 1.59028e-015 3.18055e-015 -0.916 -9.2044 0.2193 -7.95139e-016 0 -0 -0.0117 -4.1944 -0.0248 0.0129454 0.00232158 -8.46681e-005 -0.0071 -2.3249 -0.0142 -1.76556e-031 3.18055e-015 3.18055e-015 -0.6113 -8.7231 -2.0637 -7.95139e-016 0 -0 0.1927 -3.8059 -0.2383 0.0163418 0.00304008 -0.000872597 0.1091 -2.1688 -0.1362 -7.95139e-016 -1.59028e-015 3.18055e-015 0.6151 -8.0947 -3.564 -7.95139e-016 0 -0 0.4882 -2.341 -0.6462 0.0145154 0.00366639 -0.003245 0.3574 -1.7166 -0.4742 -1.19271e-015 1.59028e-015 -6.36111e-015 1.4199 -1.8761 1.4221 -7.95139e-016 0 -0 1.1472 -3.4929 2.6336 1.19271e-015 -3.18055e-015 3.18055e-015 0.8229 -2.3 1.6571 -7.95139e-016 1.59028e-015 3.18055e-015 -9.412 3.9771 -0.7758 -146.322 -66.3802 -158.572 -0.7531 -40.938 3.9968e-015 179.905 36.1898 174.042 -1.77636e-015 -40.1986 3.55271e-015 -3.33565 -12.8689 -4.38584 0 -4.4182 9.239 4.96557e-007 9.7104e-007 -2.56419e-006 9.4119 3.9773 -0.7758 -167.061 -70.7069 -158.017 0.7532 -40.9383 4.44089e-015 -179.898 35.8709 -173.991 0 -40.1986 0 3.34513 -13.3039 4.43595 0 -4.4182 9.239 1.13745e-021 4.2508e-007 3.79152e-022 
